<svg width="121" height="37" viewBox="0 0 121 37" fill="none" xmlns="http://www.w3.org/2000/svg">
<path d="M12.2975 20.1722C12.3337 20.026 12.3899 19.8851 12.465 19.7536L12.4663 19.7482C12.5937 19.5395 12.7667 19.3625 12.9722 19.2302C12.9973 17.7081 13.1771 16.1925 13.509 14.7068L13.5492 14.5726L22.1975 11.8272L24.1218 12.4391C24.4056 12.0378 24.6895 11.6591 24.9745 11.3208C25.1092 11.1626 25.2477 11.0075 25.3898 10.8557L22.2042 9.84123L12.0222 13.0818L11.7229 14.1003C11.0993 16.4911 10.8699 18.9676 11.044 21.4322C11.2273 21.4061 11.4094 21.3729 11.5899 21.3328C11.59 21.3337 11.5901 21.3347 11.5901 21.3356C11.8469 21.281 12.1001 21.2106 12.3483 21.1249C12.3477 21.1235 12.3472 21.122 12.3467 21.1206C12.3477 21.1202 12.3486 21.1199 12.3496 21.1196C12.2683 20.8962 12.2367 20.6579 12.2568 20.421C12.264 20.3369 12.2776 20.2538 12.2975 20.1722Z" fill="#1C1B1F"/>
<path d="M32.4661 17.5906C32.5927 17.4578 32.6902 17.3001 32.7526 17.1275L32.7539 17.1249C32.9117 17.019 33.0548 16.8926 33.1793 16.7491C33.441 18.7539 33.5752 21.6429 32.8707 24.5145H32.8613C32.6881 24.4803 32.5157 24.4424 32.3442 24.4007C32.3439 24.402 32.3436 24.4032 32.3433 24.4044C32.2449 24.3794 32.1431 24.3519 32.0389 24.3223C31.7655 24.2483 31.4946 24.1647 31.2269 24.0717C31.227 24.0714 31.227 24.0711 31.2271 24.0708C31.1382 24.0412 31.049 24.0111 30.9598 23.9804C31.3487 22.2757 31.5013 20.5256 31.4134 18.7794C31.5065 18.7217 31.5918 18.6529 31.6674 18.5748C31.6673 18.5732 31.6671 18.5716 31.667 18.57C31.7445 18.4892 31.8117 18.399 31.867 18.3017C31.9364 18.1755 31.9871 18.0399 32.0173 17.8991C32.1866 17.8285 32.3395 17.7235 32.4661 17.5906Z" fill="#1C1B1F"/>
<path d="M24.4349 32.7522C25.8606 31.6537 27.7345 29.9955 29.1296 27.9913L29.1282 27.998C29.2376 28.007 29.3455 28.0117 29.4505 28.0141C29.4534 28.0099 29.4563 28.0056 29.4591 28.0014C29.4825 28.0033 29.5062 28.0048 29.5301 28.006L29.5321 28.0033H30.0246L30.0188 28.0122C30.5519 28.0056 31.0818 27.9246 31.5932 27.7712C29.0571 32.3416 24.103 35.4104 23.267 35.9056C23.2173 35.9378 22.1868 36.5121 22.1868 36.5121C22.1868 36.5121 21.1817 35.9431 21.1401 35.9176C20.3068 35.4279 14.6683 31.9659 12.3214 26.84C12.5104 26.7685 12.684 26.6615 12.8327 26.5246C13.0531 26.5131 13.265 26.4385 13.4435 26.3105C13.4513 26.3047 13.4591 26.2988 13.4668 26.2928L13.466 26.2911C13.4715 26.2873 13.4771 26.2837 13.4827 26.2802C13.4897 26.2745 13.4967 26.2688 13.5036 26.2629C13.5239 26.2617 13.5442 26.2601 13.5645 26.2584C13.6318 26.2507 13.6988 26.2401 13.7653 26.2267L13.7683 26.2323C13.9062 26.209 14.042 26.1744 14.1745 26.1288C15.3955 28.7351 17.6758 30.9328 19.4703 32.3757C20.1806 32.8832 20.9446 33.3704 21.7614 33.8284L22.2244 34.0887L22.6886 33.8284C23.3004 33.4848 23.8826 33.1248 24.4349 32.7522Z" fill="#1C1B1F"/>
<path d="M29.4591 28.0014L29.4503 28.0007H29.4597L29.4591 28.0014Z" fill="#1C1B1F"/>
<path d="M25.4368 26.7957C25.2307 26.8855 25.0081 26.9312 24.7833 26.9298C24.4893 26.9306 24.201 26.8488 23.9513 26.6937C23.8051 26.6266 23.0295 26.3112 21.6272 26.2321C21.4108 26.2269 21.196 26.1931 20.9885 26.1314C19.4124 26.3011 17.8912 26.8077 16.5281 27.6169C18.6617 30.5421 21.9184 32.4731 22.1479 32.6073C22.1604 32.6152 22.1734 32.6224 22.1868 32.6287L22.2257 32.6516L22.2834 32.6838L22.3411 32.6516L22.38 32.6287C22.3947 32.6223 22.4087 32.6142 22.4216 32.6046C22.647 32.4704 25.7414 30.6294 27.8722 27.8329C27.832 27.8128 27.7904 27.7927 27.7528 27.7712C26.2768 26.8909 25.6246 26.7957 25.4368 26.7903" fill="#820024"/>
<path fill-rule="evenodd" clip-rule="evenodd" d="M41.3231 29.5371H44.4268L44.4295 29.5357C44.5248 29.5357 44.6163 29.4978 44.6838 29.4304C44.7512 29.363 44.7891 29.2715 44.7891 29.1761V24.9103H52.9489C55.7669 24.9103 56.3586 23.4571 56.3586 22.2494V19.6033C56.3586 18.3889 55.7669 16.941 52.9489 16.941H41.3231C41.2757 16.941 41.2288 16.9504 41.1851 16.9685C41.1414 16.9867 41.1017 17.0133 41.0683 17.0468C41.0349 17.0804 41.0084 17.1201 40.9904 17.1639C40.9724 17.2077 40.9633 17.2546 40.9634 17.302V29.1775C40.9634 29.2728 41.0013 29.3643 41.0688 29.4317C41.1362 29.4992 41.2277 29.5371 41.3231 29.5371ZM51.5279 22.1662H44.7864L44.7891 19.6865H51.5279C52.1157 19.6865 52.329 19.7522 52.384 19.7831L52.3858 19.7841C52.4422 19.8157 52.588 19.8973 52.588 20.2836V21.5691C52.588 21.9582 52.439 22.0387 52.3961 22.0616C52.3169 22.1005 52.0982 22.1662 51.5279 22.1662Z" fill="#1C1B1F"/>
<path d="M58.7177 29.5384H72.7401C72.8349 29.537 72.9253 29.4984 72.9919 29.4308C73.0584 29.3633 73.0957 29.2723 73.0957 29.1775V26.9459C73.0964 26.8985 73.0878 26.8514 73.0703 26.8074C73.0528 26.7633 73.0268 26.7231 72.9938 26.6891C72.9608 26.6551 72.9214 26.6279 72.8778 26.6091C72.8343 26.5903 72.7875 26.5803 72.7401 26.5796H62.2333V24.3548H68.1375C68.233 24.3544 68.3245 24.3163 68.3919 24.2486C68.4593 24.181 68.4971 24.0893 68.4971 23.9938V21.973C68.4971 21.8776 68.4592 21.7861 68.3918 21.7187C68.3244 21.6513 68.2329 21.6134 68.1375 21.6134H62.2333V19.6865H72.6059C72.7013 19.6865 72.7928 19.6486 72.8602 19.5811C72.9276 19.5137 72.9655 19.4222 72.9655 19.3268V17.302C72.9655 17.2065 72.9277 17.1149 72.8603 17.0472C72.7929 16.9795 72.7014 16.9414 72.6059 16.941H58.7177C58.6703 16.941 58.6233 16.9503 58.5795 16.9685C58.5357 16.9866 58.4959 17.0132 58.4624 17.0467C58.4289 17.0803 58.4023 17.12 58.3842 17.1638C58.366 17.2076 58.3567 17.2546 58.3567 17.302V29.1775C58.3567 29.2732 58.3947 29.365 58.4624 29.4327C58.5301 29.5004 58.6219 29.5384 58.7177 29.5384Z" fill="#1C1B1F"/>
<path d="M87.2536 29.5384H92.3312L92.3299 29.5424C92.4094 29.5437 92.487 29.5186 92.5509 29.4712C92.6147 29.4238 92.661 29.3566 92.6827 29.2801C92.7045 29.2037 92.7003 29.1221 92.671 29.0483C92.6416 28.9744 92.5887 28.9122 92.5204 28.8715L82.9113 22.8935L91.4147 17.6079C91.484 17.5679 91.5379 17.506 91.568 17.4319C91.5982 17.3578 91.6027 17.2758 91.581 17.1989C91.5593 17.1219 91.5126 17.0544 91.4482 17.0069C91.3838 16.9595 91.3055 16.9349 91.2255 16.937H86.6484C86.5784 16.9375 86.51 16.958 86.4512 16.996L79.4869 21.5785V17.2993C79.4869 17.2038 79.4491 17.1122 79.3817 17.0445C79.3143 16.9769 79.2228 16.9387 79.1273 16.9383H75.9444C75.8489 16.9387 75.7574 16.9769 75.69 17.0445C75.6226 17.1122 75.5848 17.2038 75.5848 17.2993V29.1748C75.5848 29.2703 75.6226 29.3619 75.69 29.4295C75.7574 29.4972 75.8489 29.5354 75.9444 29.5357H79.1273C79.2228 29.5354 79.3143 29.4972 79.3817 29.4295C79.4491 29.3619 79.4869 29.2703 79.4869 29.1748V24.6124L87.059 29.4807C87.117 29.5183 87.1845 29.5383 87.2536 29.5384Z" fill="#1C1B1F"/>
<path d="M94.1964 29.5371H97.3525C97.3998 29.5372 97.4467 29.5281 97.4905 29.5101C97.5343 29.4921 97.5741 29.4656 97.6076 29.4322C97.6412 29.3988 97.6678 29.3591 97.6859 29.3154C97.7041 29.2717 97.7134 29.2248 97.7134 29.1775V17.302C97.7136 17.2545 97.7044 17.2075 97.6863 17.1636C97.6682 17.1198 97.6417 17.0799 97.6081 17.0463C97.5746 17.0128 97.5347 16.9862 97.4908 16.9681C97.4469 16.9501 97.3999 16.9408 97.3525 16.941H94.1964C94.1491 16.941 94.1022 16.9504 94.0585 16.9685C94.0148 16.9867 93.9751 17.0133 93.9417 17.0468C93.9082 17.0804 93.8818 17.1202 93.8638 17.1639C93.8458 17.2077 93.8366 17.2546 93.8368 17.302V29.1775C93.8368 29.2728 93.8747 29.3643 93.9421 29.4317C94.0096 29.4992 94.101 29.5371 94.1964 29.5371Z" fill="#820024"/>
<path d="M114.449 29.5384H116.605C116.701 29.5381 116.792 29.4999 116.86 29.4322C116.927 29.3646 116.965 29.273 116.965 29.1775V17.302C116.965 17.2065 116.927 17.1149 116.86 17.0472C116.792 16.9795 116.701 16.9414 116.605 16.941H113.766C113.719 16.941 113.672 16.9503 113.628 16.9685C113.584 16.9866 113.544 17.0132 113.511 17.0467C113.477 17.0803 113.451 17.12 113.433 17.1638C113.414 17.2076 113.405 17.2546 113.405 17.302V23.5389C113.405 23.7295 113.427 24.1186 113.471 24.7184C113.204 24.4984 112.9 24.2618 112.558 24.0086L103.011 17.0108C102.949 16.9659 102.874 16.9415 102.798 16.941H100.64C100.545 16.9414 100.453 16.9795 100.386 17.0472C100.318 17.1149 100.28 17.2065 100.28 17.302V29.1775C100.28 29.273 100.318 29.3646 100.386 29.4322C100.453 29.4999 100.545 29.5381 100.64 29.5384H103.487C103.583 29.5381 103.674 29.4999 103.742 29.4322C103.809 29.3646 103.847 29.273 103.847 29.1775V22.7566C103.847 22.4722 103.834 22.1394 103.804 21.7637C103.955 21.8871 104.112 22.0079 104.274 22.126L114.236 29.4673C114.297 29.5134 114.372 29.5383 114.449 29.5384Z" fill="#1C1B1F"/>
<path d="M74.5261 36.5295L75.193 33.1373H75.8223L75.1554 36.5295H74.5261Z" fill="#1C1B1F"/>
<path d="M80.3256 36.5295H79.7379L78.9099 34.2497L78.4792 36.5295H77.8915L78.5315 33.1373H79.1206L79.9485 35.4064L80.3793 33.1373H80.967L80.3256 36.5295Z" fill="#1C1B1F"/>
<path d="M83.1556 35.4305L83.7554 35.3956C83.7532 35.5256 83.7769 35.6547 83.8252 35.7754C83.867 35.85 83.932 35.9088 84.0103 35.9431C84.1233 35.9881 84.2445 36.0087 84.3659 36.0035C84.5205 36.0149 84.6745 35.9743 84.8034 35.8881C84.8502 35.8529 84.888 35.8071 84.9134 35.7543C84.9389 35.7015 84.9513 35.6434 84.9496 35.5849C84.9517 35.5014 84.922 35.4204 84.8664 35.3581C84.7351 35.2491 84.5875 35.1612 84.429 35.0978C84.2211 35.0051 84.0225 34.8928 83.8359 34.7623C83.7386 34.6837 83.661 34.5836 83.6091 34.4698C83.5522 34.3433 83.5243 34.2058 83.5273 34.0672C83.5213 33.9324 83.5445 33.7979 83.5952 33.6729C83.6459 33.5478 83.723 33.4352 83.8211 33.3426C84.0451 33.1532 84.3334 33.0571 84.6263 33.0742C84.9237 33.0594 85.2162 33.1549 85.4475 33.3426C85.5525 33.4393 85.6367 33.5564 85.6948 33.6868C85.753 33.8171 85.7839 33.958 85.7856 34.1008L85.1804 34.1289C85.1482 33.7935 84.9631 33.6271 84.6222 33.6271C84.4907 33.6164 84.3594 33.6499 84.2492 33.7223C84.2095 33.7544 84.1781 33.7955 84.1575 33.8422C84.137 33.8889 84.1279 33.9398 84.1311 33.9907C84.1296 34.0382 84.139 34.0853 84.1585 34.1286C84.1781 34.1718 84.2073 34.21 84.2438 34.2403C84.3824 34.3427 84.5318 34.4295 84.6893 34.4993C84.8955 34.5888 85.0924 34.6985 85.2771 34.8267C85.3733 34.9035 85.45 35.0019 85.5011 35.1139C85.5542 35.2348 85.5807 35.3656 85.579 35.4976C85.5837 35.6452 85.5561 35.792 85.4981 35.9279C85.4402 36.0637 85.3533 36.1852 85.2435 36.284C84.9989 36.4944 84.6829 36.6029 84.3606 36.5872C84.1156 36.5941 83.8729 36.5392 83.6547 36.4275C83.4735 36.3391 83.3305 36.188 83.2522 36.0022C83.1802 35.8205 83.1464 35.6259 83.1529 35.4305" fill="#1C1B1F"/>
<path d="M88.6344 33.1373H89.2664L88.9216 34.9797L88.837 35.4238C88.831 35.462 88.8278 35.5006 88.8276 35.5392C88.8243 35.6023 88.8346 35.6654 88.8577 35.7242C88.8809 35.783 88.9164 35.8362 88.9618 35.8801C89.0662 35.9677 89.2001 36.0123 89.3362 36.0049C89.4594 36.0082 89.5812 35.9786 89.6891 35.919C89.7916 35.8547 89.8724 35.7613 89.9212 35.6506C90.0038 35.4368 90.0623 35.2145 90.0957 34.9877L90.4607 33.1319H91.09L90.7264 34.9837C90.6823 35.2693 90.6072 35.5491 90.5023 35.8183C90.4066 36.0516 90.2441 36.2514 90.0353 36.3927C89.8152 36.5257 89.561 36.5914 89.304 36.5819C89.158 36.5907 89.0117 36.5706 88.8736 36.5227C88.7354 36.4748 88.6081 36.4 88.4989 36.3028C88.3996 36.2037 88.3222 36.085 88.2718 35.9541C88.2214 35.8233 88.1991 35.6833 88.2063 35.5433C88.2204 35.3328 88.2505 35.1238 88.2963 34.918L88.6344 33.1373Z" fill="#1C1B1F"/>
<path d="M93.8408 36.5295H93.2128L93.8529 33.1373H95.2162C95.4084 33.1265 95.6006 33.1572 95.7798 33.2272C95.9109 33.2904 96.0189 33.3932 96.0884 33.5211C96.1709 33.6776 96.2111 33.8529 96.2052 34.0296C96.218 34.2929 96.1308 34.5513 95.961 34.7529C95.7753 34.9452 95.5267 35.0642 95.2605 35.0884C95.3607 35.1968 95.4452 35.3188 95.5114 35.4507C95.6825 35.8016 95.8318 36.1628 95.9583 36.5322H95.2793C95.2525 36.4356 95.1612 36.1766 95.0109 35.7512C94.9569 35.5886 94.8815 35.4338 94.7868 35.291C94.7477 35.2353 94.6963 35.1894 94.6365 35.1568C94.5532 35.129 94.4653 35.1172 94.3776 35.1219H94.1186L93.8408 36.5295ZM94.2045 34.616H94.5372C94.7525 34.626 94.9682 34.6075 95.1787 34.561C95.2903 34.5252 95.3879 34.4553 95.4578 34.3611C95.5298 34.2692 95.5685 34.1557 95.5678 34.039C95.5723 33.9848 95.5622 33.9303 95.5386 33.8812C95.515 33.8322 95.4788 33.7903 95.4336 33.7599C95.3209 33.7112 95.1976 33.6918 95.0753 33.7036H94.3829L94.2045 34.616Z" fill="#1C1B1F"/>
<path d="M100.393 35.7794H99.1747L98.803 36.5295H98.1549L99.8993 33.1373H100.597L101.094 36.5295H100.496L100.393 35.7794ZM100.314 35.2145L100.137 33.8498L99.4579 35.2145H100.314Z" fill="#1C1B1F"/>
<path d="M106.017 36.5295H105.429L104.601 34.2497L104.172 36.5295H103.584L104.224 33.1373H104.812L105.641 35.4064L106.072 33.1373H106.66L106.017 36.5295Z" fill="#1C1B1F"/>
<path d="M110.983 35.3071L111.619 35.4117C111.523 35.7562 111.326 36.0638 111.053 36.2947C110.806 36.4889 110.5 36.5921 110.186 36.5872C110.023 36.5948 109.859 36.5659 109.708 36.5028C109.557 36.4397 109.422 36.3439 109.313 36.2222C109.096 35.978 108.988 35.6126 108.989 35.1259C108.982 34.7447 109.062 34.3668 109.224 34.0216C109.354 33.7344 109.561 33.4888 109.822 33.3117C110.057 33.1593 110.33 33.0782 110.61 33.0783C110.902 33.0684 111.186 33.1707 111.404 33.3641C111.628 33.5781 111.762 33.8694 111.779 34.1786L111.174 34.243C111.159 34.0796 111.089 33.9262 110.975 33.8082C110.87 33.7196 110.735 33.674 110.598 33.6808C110.433 33.6831 110.274 33.7376 110.142 33.8364C109.971 33.9713 109.842 34.1512 109.769 34.3557C109.663 34.6107 109.61 34.8847 109.614 35.1608C109.599 35.3849 109.662 35.6073 109.793 35.7902C109.843 35.8579 109.908 35.9128 109.984 35.9506C110.059 35.9883 110.142 36.0079 110.226 36.0075C110.392 36.0064 110.551 35.9454 110.675 35.8358C110.828 35.6959 110.935 35.513 110.983 35.3111" fill="#1C1B1F"/>
<path d="M113.949 36.5295L114.59 33.1373H116.864L116.757 33.7036H115.115L114.968 34.4738H116.557L116.451 35.0414H114.86L114.685 35.9619H116.451L116.345 36.5295H113.949Z" fill="#1C1B1F"/>
<path d="M120.5 17.8374C120.506 18.0697 120.442 18.2985 120.318 18.4945C120.193 18.6905 120.012 18.8448 119.799 18.9375C119.586 19.0302 119.35 19.0571 119.122 19.0148C118.893 18.9724 118.682 18.8628 118.517 18.6999C118.351 18.5371 118.238 18.3284 118.191 18.1007C118.145 17.873 118.168 17.6366 118.257 17.4219C118.346 17.2072 118.497 17.024 118.69 16.8958C118.884 16.7675 119.112 16.7001 119.344 16.7022C119.495 16.7006 119.644 16.7287 119.784 16.7849C119.923 16.8412 120.05 16.9244 120.158 17.0299C120.265 17.1353 120.35 17.261 120.409 17.3995C120.468 17.5381 120.499 17.6869 120.5 17.8374ZM118.459 17.8374C118.456 17.9555 118.476 18.0729 118.519 18.1829C118.563 18.2928 118.627 18.393 118.71 18.4775C118.793 18.5619 118.891 18.629 119 18.6746C119.109 18.7202 119.226 18.7435 119.344 18.7431C119.461 18.7427 119.576 18.7188 119.683 18.6729C119.79 18.6271 119.887 18.5601 119.967 18.4761C120.048 18.3921 120.111 18.2928 120.152 18.1839C120.194 18.0751 120.213 17.9591 120.208 17.8427C120.22 17.7212 120.206 17.5985 120.168 17.4826C120.129 17.3666 120.067 17.2601 119.985 17.1697C119.903 17.0792 119.803 17.007 119.691 16.9576C119.579 16.9081 119.458 16.8826 119.336 16.8826C119.214 16.8826 119.093 16.9081 118.982 16.9576C118.87 17.007 118.77 17.0792 118.688 17.1697C118.605 17.2601 118.543 17.3666 118.505 17.4826C118.466 17.5985 118.452 17.7212 118.464 17.8427L118.459 17.8374ZM119.163 18.4305H118.895V17.2845C119.039 17.2633 119.185 17.2521 119.331 17.251C119.467 17.2358 119.603 17.2675 119.719 17.3409C119.757 17.3684 119.787 17.4048 119.808 17.4469C119.828 17.489 119.838 17.5356 119.837 17.5824C119.832 17.6469 119.807 17.7081 119.764 17.7566C119.721 17.8052 119.664 17.8382 119.601 17.8508V17.8656C119.711 17.8991 119.767 17.989 119.802 18.1339C119.817 18.2298 119.844 18.3232 119.884 18.4117H119.607C119.563 18.3243 119.533 18.2306 119.517 18.1339C119.496 18.0172 119.427 17.9622 119.281 17.9622H119.158L119.163 18.4305ZM119.17 17.7944H119.295C119.441 17.7944 119.563 17.7448 119.563 17.628C119.563 17.5113 119.486 17.4549 119.321 17.4549C119.272 17.454 119.223 17.4584 119.175 17.4684L119.17 17.7944Z" fill="#1C1B1F"/>
<path d="M0.894133 23.5993C0.894133 23.5993 1.88577 24.9412 3.47722 25.0445C3.50942 25.062 4.23939 25.223 7.69737 22.8519C7.71347 22.8372 8.33073 22.334 9.7437 22.2857C9.72626 22.2696 11.9497 22.2521 13.3131 21.4725C13.3305 21.4899 13.7854 21.0994 14.9045 21.2779C14.9542 21.2779 13.3305 20.2554 13.2809 21.0525C13.2661 21.0525 13.1681 21.2135 13.0554 20.9532C13.0554 20.9371 12.5187 19.7858 14.2067 19.5429C14.2242 19.5254 15.0682 18.617 18.4926 18.99C18.8964 18.7778 19.3142 18.5935 19.7433 18.4385C19.7433 18.4224 20.7 18.1286 21.7722 16.5532C22.3519 15.7488 23.004 14.9991 23.7205 14.3136C23.7849 14.3136 25.7977 10.806 27.0644 10.5484C27.0322 10.5819 32.9405 6.94414 34.921 1.5579C34.9533 1.59145 35.278 3.14935 33.0424 5.9109C33.0102 5.9109 34.6661 4.64284 37.068 0C37.0345 0 37.4894 2.20736 34.3722 5.39026C34.34 5.42246 37.068 3.34392 39.0151 0.356932C39.0151 0.324727 39.5679 1.98059 35.2163 5.77806C35.2163 5.74854 39.6967 2.53344 40.5086 1.81957C40.5086 1.81957 41.0601 2.72801 35.9315 6.2665C35.9637 6.2665 40.4428 3.53715 41.5794 3.44054C41.5794 3.40967 42.261 3.76795 36.7742 6.68918C36.742 6.78445 37.2935 6.68918 41.2546 5.29231C41.2882 5.29231 42.0987 5.2279 39.2754 6.7536C39.2754 6.7536 39.0473 7.04478 39.8269 6.818C39.8269 6.85021 40.2482 6.91596 38.9829 7.66337C39.0151 7.66337 38.3978 8.08472 39.0151 8.08472C39.0473 8.08472 39.372 8.18133 38.1053 9.15821C38.1053 9.12601 38.6903 9.19176 37.586 9.97004C37.586 9.97004 37.9443 11.1066 36.2884 10.9456C36.3193 10.9456 36.3193 11.3991 35.7678 11.4649C35.7678 11.4649 35.9637 11.9828 35.3464 12.0486C35.3786 12.0486 35.7034 13.1851 34.6325 13.2831C34.6325 13.2831 34.9559 13.8682 34.0488 14.1258C34.0488 14.158 34.2421 14.9698 33.5269 14.9698C33.5604 14.9698 33.755 15.8152 32.813 15.8474C32.813 15.8474 32.9109 16.2674 32.0991 16.6914C32.0991 16.7236 32.1971 17.2121 31.3195 17.3744C31.3517 17.4375 31.4537 18.2185 30.67 18.2829C30.7358 18.2829 30.3131 19.3859 29.8904 19.2544C29.8904 19.3201 29.8273 20.1333 29.2087 19.9052C29.2087 19.9361 29.1457 20.6835 28.5284 20.5882C28.5593 20.6191 28.4305 21.0417 28.0735 20.7828C28.1057 20.815 27.8145 20.7828 28.2681 21.4309C28.2681 21.4631 28.2037 21.82 27.6522 21.9515C27.6844 21.918 27.7864 22.6641 27.5542 22.6641C27.5864 22.6963 27.9447 23.2827 27.9447 23.2827L28.1379 23.6718C28.1379 23.6718 31.1907 24.9707 32.7486 25.2297C32.7808 25.2297 33.5604 25.7168 32.4238 25.8147C32.4238 25.7812 32.9431 26.5608 31.9367 26.593C31.9045 26.5608 32.1649 27.5994 28.2037 27.2089C28.2359 27.2452 26.1251 25.8792 25.1845 26.1073C25.2154 26.1381 24.7296 26.3649 24.3069 26.0751C24.3069 26.0751 23.4307 25.6188 21.6447 25.5222C21.6447 25.5222 20.9952 25.5544 20.119 24.9063L19.4373 24.8728C19.4373 24.8728 19.3729 25.1411 18.6241 25.0069C18.6577 25.0727 18.3665 25.2981 17.8781 25.1411C17.8459 25.2029 17.9411 25.3451 17.3091 25.2418C17.2622 25.27 16.7093 25.4632 16.2558 25.2029C16.2558 25.172 16.1028 25.5034 15.4506 25.3048C15.4131 25.27 15.0883 25.757 14.3101 25.3344C14.2779 25.3344 13.6284 25.6591 13.1735 25.5289C13.2379 25.5289 12.9789 25.9825 12.5562 25.757C12.5227 25.7235 12.3952 26.3408 11.4197 26.2764C11.4197 26.2764 9.66722 26.3716 9.08217 26.5675C9.08217 26.5675 9.08217 26.114 7.8812 26.7621C7.8812 26.7312 7.16733 26.9902 7.3619 26.4065C7.39411 26.4065 6.35551 27.1204 5.96637 27.1204C5.99857 27.0882 5.96637 26.5018 5.93416 25.9503C5.96637 25.9503 4.63524 26.8614 4.0824 26.8614C4.14815 26.8614 4.79626 25.8859 4.66745 25.5611C4.66745 25.5289 3.43427 26.4387 3.65971 25.4632C3.6275 25.4981 3.69325 25.0096 2.97938 25.6591C2.97938 25.6913 -0.690608 25.5611 0.899497 23.6127" fill="#820024"/>
<path d="M41.4258 9.96336H41.8786C42.3796 9.96336 42.7698 10.1489 42.6783 10.7202C42.6446 10.9448 42.529 11.1401 42.3218 11.2621C42.6398 11.3452 42.7843 11.643 42.7313 11.975C42.6446 12.5316 42.1677 12.7513 41.6233 12.7513H40.9827L41.4258 9.96336ZM41.3391 12.4633H41.6474C41.9894 12.4633 42.3652 12.3803 42.4326 11.9506C42.5001 11.516 42.1002 11.4526 41.7679 11.4526H41.5029L41.3391 12.4633ZM41.5414 11.1938H41.6571C42.0039 11.1938 42.3074 11.1547 42.3748 10.7202C42.4423 10.3003 42.1869 10.2514 41.8112 10.2514H41.6908L41.5414 11.1938Z" fill="#820024"/>
<path d="M44.0654 11.9456C44.0172 12.2678 44.2051 12.5266 44.5375 12.5266C44.788 12.5266 44.971 12.3752 45.1155 12.1653L45.3419 12.3118C45.13 12.6243 44.8217 12.8 44.4748 12.8C43.9642 12.8 43.6993 12.4045 43.7764 11.9065C43.8582 11.3938 44.2195 10.969 44.7591 10.969C45.3082 10.969 45.5298 11.4329 45.419 11.9504H44.0654V11.9456ZM45.1492 11.6966C45.1492 11.4475 44.971 11.2425 44.7157 11.2425C44.4652 11.2425 44.2003 11.4475 44.1232 11.6966H45.1492Z" fill="#820024"/>
<path d="M46.4115 11.0129H46.7535L47.163 12.2579L47.9145 11.0129H48.2468L46.5512 13.7276H46.2188L46.9558 12.5899L46.4115 11.0129Z" fill="#820024"/>
<path d="M48.9548 11.8874C49.0366 11.3747 49.4991 10.9646 50.0001 10.9646C50.5011 10.9646 50.8383 11.3747 50.7564 11.8874C50.6745 12.4001 50.212 12.8005 49.7111 12.8005C49.2101 12.8005 48.8729 12.4001 48.9548 11.8874ZM49.2486 11.8825C49.1908 12.239 49.3979 12.527 49.7592 12.527C50.1205 12.527 50.4144 12.239 50.4722 11.8825C50.53 11.531 50.3277 11.238 49.9664 11.238C49.5954 11.2429 49.3016 11.531 49.2486 11.8825Z" fill="#820024"/>
<path d="M52.2885 11.2234H52.2933C52.4378 11.0574 52.6112 10.9646 52.8232 10.9646C53.2953 10.9646 53.3531 11.3113 53.2856 11.7214L53.1218 12.7565H52.828L52.9821 11.7751C53.0255 11.4919 53.0448 11.2429 52.7027 11.2429C52.3029 11.2429 52.2162 11.6189 52.168 11.9314L52.038 12.7565H51.7441L52.0187 11.0183H52.3126L52.2885 11.2234Z" fill="#820024"/>
<path d="M55.7278 12.5122H55.7181C55.5447 12.7026 55.3135 12.8003 55.0823 12.8003C54.5813 12.8003 54.3308 12.3657 54.403 11.8872C54.4801 11.3892 54.8607 10.9644 55.3761 10.9644C55.6073 10.9644 55.8048 11.0767 55.9156 11.2623H55.9204L56.1661 9.69983H56.46L55.9782 12.7515H55.6844L55.7278 12.5122ZM54.7065 11.8677C54.6535 12.2095 54.7981 12.5318 55.1642 12.5318C55.5399 12.5318 55.7856 12.2242 55.8386 11.8726C55.8915 11.5259 55.7229 11.2427 55.3617 11.2427C55.0245 11.2427 54.7595 11.5406 54.7065 11.8677Z" fill="#820024"/>
<path d="M59.4133 12.7565H59.1194L59.3507 11.2917H59.1724L59.2158 11.0183H59.394L59.4904 10.3933H59.7842L59.6879 11.0183H59.9962L59.9528 11.2917H59.6445L59.4133 12.7565Z" fill="#820024"/>
<path d="M61.4892 9.69983L61.2484 11.2183L61.2532 11.2281C61.3977 11.0621 61.5711 10.9693 61.7831 10.9693C62.2551 10.9693 62.313 11.316 62.2455 11.7261L62.0817 12.7612H61.7879L61.942 11.7798C61.9854 11.4966 62.0047 11.2476 61.6626 11.2476C61.2628 11.2476 61.1761 11.6236 61.1279 11.9361L60.9979 12.7612H60.704L61.1858 9.70959H61.4892V9.69983Z" fill="#820024"/>
<path d="M63.6473 11.9456C63.5991 12.2678 63.787 12.5266 64.1194 12.5266C64.3699 12.5266 64.5529 12.3752 64.6974 12.1653L64.9238 12.3118C64.7119 12.6243 64.4084 12.8 64.0567 12.8C63.5461 12.8 63.2812 12.4045 63.3583 11.9065C63.4402 11.3938 63.8014 10.969 64.341 10.969C64.8901 10.969 65.1117 11.4329 65.0009 11.9504H63.6473V11.9456ZM64.7311 11.6966C64.7311 11.4475 64.5529 11.2425 64.2976 11.2425C64.0471 11.2425 63.7822 11.4475 63.7051 11.6966H64.7311Z" fill="#820024"/>
<path d="M68.132 11.9456C68.0838 12.2678 68.2717 12.5266 68.6041 12.5266C68.8545 12.5266 69.0376 12.3752 69.1821 12.1653L69.4085 12.3118C69.1966 12.6243 68.8883 12.8 68.5414 12.8C68.0308 12.8 67.7659 12.4045 67.8429 11.9065C67.9248 11.3938 68.2861 10.969 68.8256 10.969C69.3748 10.969 69.5964 11.4329 69.4856 11.9504H68.132V11.9456ZM69.211 11.6966C69.211 11.4475 69.0328 11.2425 68.7775 11.2425C68.527 11.2425 68.262 11.4475 68.185 11.6966H69.211Z" fill="#820024"/>
<path d="M70.5936 11.0129H70.95L71.3065 11.6037L71.8508 11.0129H72.2169L71.4606 11.8283L72.0291 12.7511H71.6678L71.2342 12.0431L70.5743 12.7511H70.2082L71.0849 11.8283L70.5936 11.0129Z" fill="#820024"/>
<path d="M73.5465 11.2624H73.5561C73.7295 11.072 73.9559 10.9646 74.192 10.9646C74.6977 10.9646 74.9434 11.404 74.8663 11.8874C74.7893 12.3854 74.4135 12.8005 73.8981 12.8005C73.6669 12.8005 73.4646 12.6979 73.3586 12.5075H73.3538L73.1611 13.7282H72.8672L73.296 11.0134H73.5898L73.5465 11.2624ZM73.4405 11.8679C73.3875 12.2097 73.532 12.5319 73.8981 12.5319C74.2738 12.5319 74.5195 12.2243 74.5725 11.8728C74.6255 11.5261 74.4569 11.2429 74.0956 11.2429C73.7536 11.2429 73.4886 11.5407 73.4405 11.8679Z" fill="#820024"/>
<path d="M76.1481 11.9456C76.1 12.2678 76.2878 12.5266 76.6202 12.5266C76.8707 12.5266 77.0538 12.3752 77.1983 12.1653L77.4247 12.3118C77.2127 12.6243 76.9044 12.8 76.5576 12.8C76.047 12.8 75.782 12.4045 75.8591 11.9065C75.941 11.3938 76.3023 10.969 76.8418 10.969C77.391 10.969 77.6126 11.4329 77.5018 11.9504H76.1481V11.9456ZM77.2272 11.6966C77.2272 11.4475 77.049 11.2425 76.7936 11.2425C76.5432 11.2425 76.2782 11.4475 76.2011 11.6966H77.2272Z" fill="#820024"/>
<path d="M79.9678 11.531H79.9581C79.8522 11.3552 79.7028 11.238 79.4716 11.238C79.1151 11.238 78.8165 11.5359 78.7635 11.8825C78.7105 12.2292 78.8935 12.527 79.2548 12.527C79.5005 12.527 79.6884 12.4147 79.8618 12.2292H79.8666L79.804 12.6247C79.6209 12.737 79.4379 12.8005 79.2307 12.8005C78.7105 12.8005 78.3781 12.4099 78.46 11.8825C78.5419 11.365 79.0188 10.9646 79.5198 10.9646C79.7076 10.9646 79.8859 11.0281 80.0208 11.1404L79.9678 11.531Z" fill="#820024"/>
<path d="M81.2781 12.7565H80.9843L81.2155 11.2917H81.0372L81.0806 11.0183H81.2588L81.3552 10.3933H81.649L81.5479 11.0183H81.8561L81.8128 11.2917H81.5045L81.2781 12.7565Z" fill="#820024"/>
<path d="M82.8483 11.9456C82.8002 12.2678 82.988 12.5266 83.3204 12.5266C83.5709 12.5266 83.754 12.3752 83.8985 12.1653L84.1249 12.3118C83.9129 12.6243 83.6046 12.8 83.2578 12.8C82.7472 12.8 82.4822 12.4045 82.5593 11.9065C82.6412 11.3938 83.0025 10.969 83.542 10.969C84.0912 10.969 84.3128 11.4329 84.202 11.9504H82.8483V11.9456ZM83.9322 11.6966C83.9322 11.4475 83.754 11.2425 83.4987 11.2425C83.2482 11.2425 82.9832 11.4475 82.9061 11.6966H83.9322Z" fill="#820024"/>
<path d="M86.5141 12.5122H86.5044C86.331 12.7026 86.0998 12.8003 85.8686 12.8003C85.3676 12.8003 85.1171 12.3657 85.1894 11.8872C85.2664 11.3892 85.647 10.9644 86.1624 10.9644C86.3936 10.9644 86.5911 11.0767 86.7019 11.2623H86.7116L86.9573 9.69983H87.2511L86.7694 12.7515H86.4755L86.5141 12.5122ZM85.4977 11.8677C85.4447 12.2095 85.5892 12.5318 85.9553 12.5318C86.331 12.5318 86.5767 12.2242 86.6345 11.8726C86.6875 11.5259 86.5189 11.2427 86.1576 11.2427C85.8156 11.2427 85.5506 11.5406 85.4977 11.8677Z" fill="#820024"/>
<path d="M87.8149 12.5906C87.7956 12.7078 87.6896 12.8005 87.5789 12.8005C87.4681 12.8005 87.391 12.7029 87.4054 12.5906C87.4247 12.4783 87.5307 12.3855 87.6415 12.3855C87.7523 12.3904 87.8294 12.4783 87.8149 12.5906Z" fill="#820024"/>
<path d="M89.9105 10.2469C89.9105 10.701 89.5492 11.0574 89.0964 11.0574C88.6387 11.0574 88.2726 10.6961 88.2726 10.2469C88.2726 9.79278 88.6387 9.44123 89.0964 9.44123C89.5492 9.43634 89.9105 9.79278 89.9105 10.2469ZM88.475 10.2469C88.475 10.6082 88.7399 10.8914 89.0964 10.8914C89.4432 10.8963 89.7033 10.6082 89.7033 10.2517C89.7033 9.89043 89.4432 9.60236 89.0867 9.60236C88.7447 9.60236 88.475 9.89043 88.475 10.2469ZM88.9663 10.6668H88.7833V9.85625C88.8555 9.84649 88.9567 9.83184 89.0916 9.83184C89.2409 9.83184 89.3083 9.85625 89.3613 9.89531C89.4095 9.92949 89.4432 9.98808 89.4432 10.0662C89.4432 10.1639 89.371 10.2273 89.2794 10.2566V10.2664C89.3565 10.2908 89.395 10.3543 89.4191 10.4617C89.4432 10.5838 89.4625 10.6277 89.4769 10.657H89.2842C89.2602 10.6277 89.2457 10.5594 89.2216 10.4617C89.2072 10.3787 89.159 10.3396 89.0578 10.3396H88.9711V10.6668H88.9663ZM88.9711 10.2127H89.0578C89.159 10.2127 89.2409 10.1785 89.2409 10.0955C89.2409 10.0223 89.1879 9.97344 89.0723 9.97344C89.0241 9.97344 88.9904 9.97832 88.9711 9.9832V10.2127Z" fill="#820024"/>
</svg>
